<svg viewBox="0 0 960 700" xmlns="http://www.w3.org/2000/svg">
  <g fill="#E3001B">
    <circle cx="240" cy="95" r="80"/>
    <circle cx="720" cy="95" r="80"/>
    <path d="M0 220 L130 90 L260 220 L195 220 L195 540 L130 540 L130 285 L65 220 Z"/>
    <path d="M480 0 L760 280 L660 280 L480 100 L300 280 L200 280 Z"/>
    <path d="M960 220 L830 90 L700 220 L765 220 L765 540 L830 540 L830 285 L895 220 Z"/>
    <path d="M480 130 L630 280 L565 280 L480 195 L395 280 L330 280 Z"/>
    <path d="M395 280 L565 280 L565 540 L500 540 L500 345 L460 345 L460 540 L395 540 Z"/>
  </g>
</svg>
